<?xml version="1.0" standalone="no"?>
<!DOCTYPE svg PUBLIC "-//W3C//DTD SVG 20010904//EN"
 "http://www.w3.org/TR/2001/REC-SVG-20010904/DTD/svg10.dtd">
<svg version="1.0" xmlns="http://www.w3.org/2000/svg"
 width="352.000000pt" height="352.000000pt" viewBox="0 0 352.000000 352.000000"
 preserveAspectRatio="xMidYMid meet">
<metadata>
Created by potrace 1.11, written by Peter Selinger 2001-2013
</metadata>
<g transform="translate(0.000000,352.000000) scale(0.100000,-0.100000)"
fill="#000000" stroke="none">
<path d="M1179 3349 c-85 -49 -195 -112 -245 -140 l-91 -51 -1 -851 c-1 -469
-3 -1100 -5 -1403 l-4 -551 94 -54 c52 -30 102 -58 111 -64 10 -5 79 -45 153
-88 l136 -78 111 66 c61 36 114 65 118 65 4 0 15 6 23 14 9 7 39 26 66 41 28
16 77 44 110 62 l60 34 0 279 c-1 276 0 278 20 268 11 -6 116 -67 233 -135
l214 -124 64 40 c36 23 67 41 69 41 4 0 270 153 295 170 8 6 25 15 38 22 l22
11 0 843 0 842 -212 123 c-117 67 -260 150 -318 184 -224 132 -730 425 -734
425 -3 0 -29 15 -58 34 -29 18 -67 40 -84 49 l-31 16 -154 -90z"/>
</g>
</svg>
