<?xml version="1.0" standalone="no"?>
<!DOCTYPE svg PUBLIC "-//W3C//DTD SVG 20010904//EN"
 "http://www.w3.org/TR/2001/REC-SVG-20010904/DTD/svg10.dtd">
<svg version="1.0" xmlns="http://www.w3.org/2000/svg"
 width="207.000000pt" height="207.000000pt" viewBox="0 0 207.000000 207.000000"
 preserveAspectRatio="xMidYMid meet">
<metadata>
Created by potrace 1.11, written by Peter Selinger 2001-2013
</metadata>
<g transform="translate(0.000000,207.000000) scale(0.100000,-0.100000)"
fill="#000000" stroke="none">
<path d="M1385 1702 c-55 -32 -156 -89 -225 -127 -69 -37 -134 -76 -145 -85
-27 -23 -234 -140 -248 -140 -5 0 -58 27 -117 60 -59 33 -111 60 -115 60 -5 0
-62 -30 -127 -67 l-118 -67 0 -416 0 -415 347 -202 c192 -111 355 -205 364
-208 10 -4 62 21 135 64 l119 69 3 141 3 140 97 56 c53 31 160 93 237 138
l140 83 0 419 0 420 -115 67 c-63 37 -119 67 -125 68 -5 0 -55 -26 -110 -58z
m-11 -713 c58 -34 104 -65 101 -69 -5 -9 -199 -120 -209 -120 -3 0 -6 56 -6
125 0 69 2 125 4 125 2 0 52 -28 110 -61z m-604 -349 c0 -66 -3 -120 -6 -120
-8 0 -183 98 -202 113 -10 8 12 25 85 68 54 32 104 58 111 59 9 0 12 -30 12
-120z"/>
</g>
</svg>
